Coordinates
version=1
nRows=16
nColumns=22
inDegrees=yes

Units are S.I. units (second, meters, Newtons, ...)
If the header above contains a line with 'inDegrees', this indicates whether rotational values are in degrees (yes) or radians (no).

endheader
time	pelvis_tilt	pelvis_list	pelvis_rotation	pelvis_tx	pelvis_ty	pelvis_tz	hip_flexion_r	hip_adduction_r	hip_rotation_r	knee_angle_r	ankle_angle_r	subtalar_angle_r	hip_flexion_l	hip_adduction_l	hip_rotation_l	knee_angle_l	ankle_angle_l	subtalar_angle_l	lumbar_extension	lumbar_bending	lumbar_rotation
      3.18000000	     -7.87889546	      1.75872348	    -47.47462632	     -0.35682150	      0.86074040	      0.08871964	    -10.61391982	      3.59402284	      8.26430196	     -4.88542116	     18.16413894	      5.29587584	     34.29172775	    -13.00926060	      0.56029573	    -12.14221883	      4.65978940	      3.54967060	     -2.17538419	      6.54437940	     18.95613820
      3.19000000	     -8.11994038	      1.75312847	    -47.69357773	     -0.35115530	      0.85942408	      0.09147845	    -10.79417962	      3.53201484	      8.59876924	     -5.01058274	     18.13427721	      5.40194506	     34.16081116	    -13.13710477	      0.45716469	    -12.06731640	      4.86745305	      3.43920843	     -1.95657495	      6.66122920	     18.98249399
      3.20000000	     -8.36754116	      1.76754317	    -47.91388610	     -0.34531842	      0.85805205	      0.09430294	    -10.96901021	      3.44985422	      8.94209145	     -5.12572409	     18.07400143	      5.55943704	     34.01284370	    -13.24630859	      0.32796213	    -12.02950986	      5.06300201	      3.26342997	     -1.70889872	      6.76950551	     18.99346162
      3.21000000	     -8.62314582	      1.79376387	    -48.13130055	     -0.33930808	      0.85663702	      0.09719093	    -11.14289186	      3.35552152	      9.28313438	     -5.23297168	     17.99860249	      5.73864279	     33.84667311	    -13.34195144	      0.18784691	    -12.02406180	      5.21891012	      3.07565415	     -1.43726632	      6.87640435	     18.98961915
      3.22000000	     -8.86790779	      1.83829410	    -48.33857190	     -0.33311517	      0.85521222	      0.10008903	    -11.30534074	      3.22994196	      9.60490781	     -5.36264385	     17.91148049	      6.03256345	     33.66176554	    -13.39788773	      0.05965522	    -12.05423480	      5.31069870	      2.81266020	     -1.15711272	      6.96497480	     18.95861670
      3.23000000	     -9.12523082	      1.91729238	    -48.53611967	     -0.32677506	      0.85376460	      0.10304908	    -11.46097443	      3.08426749	      9.94985135	     -5.44761719	     17.78273616	      6.14133547	     33.48936573	    -13.43018867	     -0.06825886	    -12.09720299	      5.25263974	      2.75903889	     -0.83028033	      7.03468650	     18.90608760
      3.24000000	     -9.36184986	      2.00500807	    -48.74292138	     -0.32032033	      0.85239535	      0.10600018	    -11.59322963	      2.90647094	     10.28873052	     -5.59152750	     17.63734449	      6.49824232	     33.31551810	    -13.44081746	     -0.24832974	    -12.19023304	      5.07272429	      2.66651561	     -0.52290446	      7.08550499	     18.85782400
      3.25000000	     -9.58360901	      2.14476648	    -48.93006335	     -0.31373616	      0.85109583	      0.10893833	    -11.69532630	      2.67881301	     10.63916129	     -5.73285192	     17.44413556	      6.67421518	     33.16336487	    -13.39315793	     -0.41720984	    -12.26507223	      4.68992359	      2.70820909	     -0.18461815	      7.08476651	     18.77954275
      3.26000000	     -9.75835168	      2.32384957	    -49.08742976	     -0.30703675	      0.84995099	      0.11182304	    -11.76911018	      2.38876939	     10.95460965	     -5.92473535	     17.22812708	      6.95528484	     33.03176061	    -13.27146092	     -0.60844765	    -12.35240978	      4.10266125	      2.85590870	      0.14279499	      7.01102083	     18.65851135
      3.27000000	     -9.88361337	      2.54813097	    -49.20329917	     -0.30021496	      0.84899865	      0.11462600	    -11.81449140	      2.03410461	     11.23893421	     -6.15712029	     16.95444344	      7.22388284	     32.92831842	    -13.06336351	     -0.79605687	    -12.44796686	      3.35017126	      3.06366464	      0.46065717	      6.86005772	     18.49473192
      3.28000000	     -9.96836981	      2.81102540	    -49.26870077	     -0.29328065	      0.84826249	      0.11733978	    -11.83854179	      1.62975213	     11.50771963	     -6.41075648	     16.58292765	      7.39156750	     32.87023777	    -12.77651327	     -0.94750098	    -12.58676475	      2.51080152	      3.22244999	      0.77045116	      6.64077059	     18.30907891
      3.29000000	     -9.94095274	      3.09742375	    -49.31199631	     -0.28622938	      0.84784724	      0.12001730	    -11.85108242	      1.13072093	     11.68809767	     -6.79388122	     16.24316004	      7.84882269	     32.77405543	    -12.38977808	     -1.21084132	    -12.78448404	      1.67130082	      3.59785393	      1.00298907	      6.30484495	     18.07535345
      3.30000000	     -9.87945275	      3.41184017	    -49.29229582	     -0.27905293	      0.84768701	      0.12262325	    -11.85035182	      0.60117393	     11.86864647	     -7.19284852	     15.77126672	      8.19842497	     32.71059838	    -11.92655830	     -1.40207389	    -13.05173792	      0.90892840	      3.84146437	      1.22837261	      5.91229351	     17.79967186
      3.31000000	     -9.75451506	      3.73496001	    -49.22930294	     -0.27175144	      0.84783190	      0.12520014	    -11.85431826	      0.03001665	     12.02530426	     -7.64655243	     15.21787440	      8.61327538	     32.63072879	    -11.38929922	     -1.57426898	    -13.39564248	      0.29657127	      4.05115737	      1.40900388	      5.45486143	     17.48164103
      3.32000000	     -9.59016719	      4.07388341	    -49.11486669	     -0.26435357	      0.84824220	      0.12775313	    -11.82137723	     -0.55603945	     12.14307292	     -8.19673538	     14.61458899	      8.88948731	     32.54764390	    -10.78447084	     -1.69024415	    -13.79139305	     -0.15129172	      4.15979049	      1.57149515	      4.94259088	     17.12468599
      3.33000000	     -9.36900358	      4.37851079	    -48.96750680	     -0.25683568	      0.84898601	      0.13028598	    -11.82054561	     -1.15055576	     12.21896655	     -8.80136492	     13.88441558	      9.39149859	     32.40707522	    -10.13470805	     -1.75571810	    -14.24457323	     -0.39593817	      4.21614647	      1.65639053	      4.40583571	     16.78960876
